<?xml version="1.0" encoding="UTF-8" standalone="no"?>
<svg
   xmlns:dc="http://purl.org/dc/elements/1.1/"
   xmlns:cc="http://creativecommons.org/ns#"
   xmlns:rdf="http://www.w3.org/1999/02/22-rdf-syntax-ns#"
   xmlns:svg="http://www.w3.org/2000/svg"
   xmlns="http://www.w3.org/2000/svg"
   xmlns:sodipodi="http://sodipodi.sourceforge.net/DTD/sodipodi-0.dtd"
   xmlns:inkscape="http://www.inkscape.org/namespaces/inkscape"
   version="1.1"
   id="svg2"
   xml:space="preserve"
   width="2666.6667"
   height="2666.6667"
   viewBox="0 0 2666.6667 2666.6667"
   sodipodi:docname="slx_9n3g9s_error__browser__404__not_found.eps"><metadata
     id="metadata8"><rdf:RDF><cc:Work
         rdf:about=""><dc:format>image/svg+xml</dc:format><dc:type
           rdf:resource="http://purl.org/dc/dcmitype/StillImage" /></cc:Work></rdf:RDF></metadata><defs
     id="defs6" /><sodipodi:namedview
     pagecolor="#ffffff"
     bordercolor="#666666"
     borderopacity="1"
     objecttolerance="10"
     gridtolerance="10"
     guidetolerance="10"
     inkscape:pageopacity="0"
     inkscape:pageshadow="2"
     inkscape:window-width="640"
     inkscape:window-height="480"
     id="namedview4" /><g
     id="g10"
     inkscape:groupmode="layer"
     inkscape:label="ink_ext_XXXXXX"
     transform="matrix(1.3333333,0,0,-1.3333333,0,2666.6667)"><g
       id="g12"
       transform="scale(0.1)"><path
         d="m 17440,13530 c -116,0 -210,94 -210,210 v 2160 H 2770 v -2160 c 0,-116 -94.02,-210 -210,-210 -115.98,0 -210,94 -210,210 v 2370 c 0,116 94.02,210 210,210 h 14880 c 116,0 210,-94 210,-210 v -2370 c 0,-116 -94,-210 -210,-210"
         style="fill:#000000;fill-opacity:1;fill-rule:nonzero;stroke:none"
         id="path14" /><path
         d="m 2770,4100 h 14460 v 9430 H 2770 Z M 17440,3680 H 2560 c -115.98,0 -210,94 -210,210 v 9850 c 0,116 94.02,210 210,210 h 14880 c 116,0 210,-94 210,-210 V 3890 c 0,-116 -94,-210 -210,-210"
         style="fill:#000000;fill-opacity:1;fill-rule:nonzero;stroke:none"
         id="path16" /><path
         d="m 4429.95,14575 v 0 c -193.3,0 -350,156.7 -350,350 v 0 c 0,193.3 156.7,350 350,350 v 0 c 193.3,0 350,-156.7 350,-350 v 0 c 0,-193.3 -156.7,-350 -350,-350"
         style="fill:#000000;fill-opacity:1;fill-rule:nonzero;stroke:none"
         id="path18" /><path
         d="m 5809.95,14575 v 0 c -193.3,0 -350,156.7 -350,350 v 0 c 0,193.3 156.7,350 350,350 v 0 c 193.3,0 350,-156.7 350,-350 v 0 c 0,-193.3 -156.7,-350 -350,-350"
         style="fill:#000000;fill-opacity:1;fill-rule:nonzero;stroke:none"
         id="path20" /><path
         d="m 7189.95,14575 v 0 c -193.3,0 -350,156.7 -350,350 v 0 c 0,193.3 156.7,350 350,350 v 0 c 193.3,0 350,-156.7 350,-350 v 0 c 0,-193.3 -156.7,-350 -350,-350"
         style="fill:#000000;fill-opacity:1;fill-rule:nonzero;stroke:none"
         id="path22" /><path
         d="m 5010.6,8107.9 h 1555.81 v 2166.7 z M 6776.41,6493 c -115.98,0 -210,94 -210,210 v 984.9 H 4601.27 c -78.76,0 -150.89,44.1 -186.85,114.2 -35.95,70.1 -29.66,154.4 16.27,218.3 l 2175.14,3029.1 c 53.2,74.1 148.13,105.3 234.92,77.4 86.81,-27.9 145.66,-108.7 145.66,-199.9 V 8107.9 h 547.82 c 115.98,0 210,-94 210,-210 0,-115.9 -94.02,-210 -210,-210 H 6986.41 V 6703 c 0,-116 -94.02,-210 -210,-210"
         style="fill:#000000;fill-opacity:1;fill-rule:nonzero;stroke:none"
         id="path24" /><path
         d="m 12875.1,8107.9 h 1555.8 v 2166.6 z M 14640.9,6493 c -116,0 -210,94 -210,210 v 984.9 h -1965.1 c -78.8,0 -150.9,44.1 -186.9,114.2 -35.9,70.1 -29.7,154.4 16.3,218.3 l 2175.1,3029.1 c 53.2,74.1 148.1,105.4 234.9,77.4 86.9,-27.9 145.7,-108.7 145.7,-199.9 V 8107.9 h 547.8 c 116,0 210,-94 210,-210 0,-115.9 -94,-210 -210,-210 h -547.8 V 6703 c 0,-116 -94,-210 -210,-210"
         style="fill:#000000;fill-opacity:1;fill-rule:nonzero;stroke:none"
         id="path26" /><path
         d="m 10000,10717 c -546.41,0 -990.95,-444.5 -990.95,-990.9 V 7903.9 c 0,-546.4 444.54,-990.9 990.95,-990.9 546.4,0 991,444.5 991,990.9 v 1822.2 c 0,546.4 -444.6,990.9 -991,990.9 z m 0,-4224 c -778,0 -1410.95,632.9 -1410.95,1410.9 v 1822.2 c 0,778 632.95,1410.9 1410.95,1410.9 778,0 1411,-632.9 1411,-1410.9 V 7903.9 c 0,-778 -633,-1410.9 -1411,-1410.9"
         style="fill:#000000;fill-opacity:1;fill-rule:nonzero;stroke:none"
         id="path28" /></g></g></svg>
